<svg width="142" height="103" viewBox="0 0 142 103" fill="none" xmlns="http://www.w3.org/2000/svg">
<path d="M4.2764 71.4015C4.2764 71.4015 43.7416 99.6146 46.141 101.021C48.4576 102.428 51.8498 102.759 54.8283 101.6C57.8068 100.442 60.0407 97.7944 60.7026 95.1468C61.4472 92.4993 70.4655 44.8431 70.4655 44.8431C70.5482 44.1812 70.7964 42.2783 69.8036 40.4581C68.3971 37.976 65.2531 36.6522 62.4401 37.4796C60.2062 38.1415 59.0479 39.7962 58.7169 40.3753C58.2205 41.2854 57.3104 42.7747 55.6557 44.0985C54.4146 45.0913 53.1736 45.6705 52.5944 45.9187C47.5475 47.9871 41.9214 46.2496 38.6947 42.1128C36.7091 39.548 33.1514 38.5551 30.0074 39.7962C26.8634 41.0372 25.0432 44.264 25.2914 47.4907C25.8706 52.6203 22.9748 57.75 17.8452 59.8184C15.1149 60.894 12.2191 60.894 9.65426 60.0666C9.07511 59.9011 7.0067 59.4047 4.93829 60.563C2.37346 61.8868 1.04968 65.0308 1.71157 67.8438C2.20799 69.7468 3.69725 70.9878 4.2764 71.4015Z" fill="#FF9538"/>
<path d="M70.0519 9.59742C70.0519 9.59742 84.1171 56.0953 85.1099 58.5773C86.1027 61.1422 88.5848 63.4588 91.6461 64.3689C94.7073 65.279 98.0995 64.5344 100.251 62.8796C102.402 61.2249 138.723 29.0405 138.723 29.0405C139.219 28.6268 140.543 27.2203 140.874 25.1519C141.288 22.3388 139.55 19.3603 136.903 18.2847C134.752 17.4574 132.766 18.0365 132.187 18.2847C131.277 18.6984 129.622 19.2776 127.554 19.3603C125.899 19.443 124.658 19.1121 123.996 18.9466C118.784 17.4574 115.309 12.6587 115.309 7.44627C115.226 4.21956 113.075 1.24105 109.848 0.330947C106.539 -0.579153 103.146 0.827365 101.409 3.55767C98.6787 8.02543 93.3008 10.2593 88.0057 8.77006C85.1926 7.94269 82.876 6.20523 81.3868 3.97135C80.9731 3.47493 79.6493 1.8202 77.3327 1.40652C74.5197 0.910102 71.4584 2.56483 70.3001 5.12966C69.39 7.11533 69.8864 8.93553 70.0519 9.59742Z" fill="#FF9538"/>
</svg>
